<?xml version="1.0" standalone="no"?>
<!DOCTYPE svg PUBLIC "-//W3C//DTD SVG 20010904//EN"
 "http://www.w3.org/TR/2001/REC-SVG-20010904/DTD/svg10.dtd">
<svg version="1.0" xmlns="http://www.w3.org/2000/svg"
 width="401.000000pt" height="399.000000pt" viewBox="0 0 401.000000 399.000000"
 preserveAspectRatio="xMidYMid meet">
<metadata>
Created by potrace 1.15, written by Peter Selinger 2001-2017
</metadata>
<g transform="translate(0.000000,399.000000) scale(0.100000,-0.100000)"
fill="#000000" stroke="none">
<path d="M20 2395 l0 -1575 180 0 180 0 0 1400 0 1400 1630 0 1630 0 0 -1630
0 -1630 -1810 0 -1810 0 0 -175 0 -175 1990 0 1990 0 0 1980 0 1980 -1990 0
-1990 0 0 -1575z"/>
<path d="M2099 3130 c-115 -20 -171 -88 -173 -210 -1 -154 85 -228 254 -218
94 5 144 29 184 86 38 53 48 158 21 228 -19 49 -75 99 -123 108 -61 11 -120
13 -163 6z"/>
<path d="M1790 2525 c0 -24 2 -25 76 -25 l75 0 -4 -722 c-4 -777 -4 -782 -56
-834 -22 -22 -32 -25 -70 -21 -51 6 -81 34 -81 74 0 46 17 63 65 63 l44 0 7
56 c12 98 -7 151 -70 198 -22 17 -42 21 -109 21 -99 0 -147 -20 -185 -78 -37
-55 -44 -165 -14 -223 23 -46 74 -99 115 -121 79 -41 258 -54 382 -28 184 39
295 143 360 337 50 150 55 227 55 801 l0 527 -295 0 -295 0 0 -25z"/>
</g>
</svg>
